<svg xmlns="http://www.w3.org/2000/svg" width="133.005" height="95" viewBox="0 0 133.005 95">
  <path id="Cart" d="M-2.07,10.143A5.282,5.282,0,0,1,3.393,4.68H31.3a5.443,5.443,0,0,1,3.385,1.128,5.276,5.276,0,0,1,1.959,3.028l2.85,11.638h80.037l.835-2.494a4.912,4.912,0,0,1,5.106-3.8,3.656,3.656,0,0,1,1.544.238,5.115,5.115,0,0,1,2.85,1.9,5.188,5.188,0,0,1,1.069,3.206,6.635,6.635,0,0,1-.238,1.544L116.685,67.739a5.108,5.108,0,0,1-1.9,2.85,5.218,5.218,0,0,1-3.206,1.069H45.194a5.278,5.278,0,0,1-3.385-1.184A5.546,5.546,0,0,1,39.85,67.5L27.025,15.487H3.393a5.372,5.372,0,0,1-3.86-1.544A5.068,5.068,0,0,1-2.07,10.143ZM42.107,31.281,49.47,60.732h58.071l.234-1.065,8.554-28.382H42.107Zm4.988,57.477a10.421,10.421,0,0,1,3.266-7.719,10.725,10.725,0,0,1,7.778-3.206,10.924,10.924,0,0,1,0,21.847,10.722,10.722,0,0,1-7.778-3.2A10.435,10.435,0,0,1,47.094,88.758Zm7.719-48.214H74.527V51.466H57.185ZM83.908,51.469l.119-10.922h19.238l-2.85,10.922ZM88.3,88.758a10.424,10.424,0,0,1,3.269-7.719,10.713,10.713,0,0,1,7.778-3.206,10.924,10.924,0,0,1,0,21.847,10.716,10.716,0,0,1-7.778-3.2A10.424,10.424,0,0,1,88.3,88.758Z" transform="translate(2.07 -4.68)" fill="#fff6f6"/>
</svg>
