<svg xmlns="http://www.w3.org/2000/svg" width="336" height="89" viewBox="0 0 336 89">
  <g id="Logo" transform="translate(-94 -71)">
    <g id="Grupo_3" data-name="Grupo 3" transform="translate(-59 19)">
      <g id="Grupo_2" data-name="Grupo 2">
        <path id="Icon_simple-shopify" data-name="Icon simple-shopify" d="M52.52,86.924l26.158-5.659s-9.439-63.847-9.516-64.271a.8.8,0,0,0-.765-.7c-.352,0-6.993-.493-6.993-.493s-4.622-4.618-5.216-5.115a1.391,1.391,0,0,0-.439-.268l-3.313,76.5h.083ZM37.414,3.009a2.434,2.434,0,0,1,1.468.489C35.315,5.184,31.4,9.439,29.791,17.969c-2.378.772-4.687,1.468-6.848,2.1C24.825,13.594,29.37,3.045,37.414,3.045ZM41.891,13.7v.489c-2.733.841-5.738,1.755-8.678,2.668,1.689-6.442,4.832-9.588,7.558-10.77A21.327,21.327,0,0,1,41.891,13.7Zm1.954-8.1c2.516.268,4.136,3.143,5.18,6.362-1.265.413-2.664.837-4.2,1.327v-.913a20.613,20.613,0,0,0-.982-6.782Zm10.846,4.673c-.073,0-.218.076-.283.076s-1.048.272-2.588.761c-1.533-4.47-4.263-8.591-9.092-8.591h-.417A5.964,5.964,0,0,0,37.759,0C26.5,0,21.12,14.054,19.434,21.192c-4.328,1.323-7.478,2.305-7.83,2.443-2.447.772-2.516.841-2.8,3.154-.272,1.675-6.634,50.978-6.634,50.978L51.331,87l3.36-76.727Z" transform="translate(150.828 54)" fill="#2e85ae"/>
        <path id="Icon_simple-shopify-2" data-name="Icon simple-shopify" d="M52.52,86.924l26.158-5.659s-9.439-63.847-9.516-64.271a.8.8,0,0,0-.765-.7c-.352,0-6.993-.493-6.993-.493s-4.622-4.618-5.216-5.115a1.391,1.391,0,0,0-.439-.268l-3.313,76.5h.083ZM37.414,3.009a2.434,2.434,0,0,1,1.468.489C35.315,5.184,31.4,9.439,29.791,17.969c-2.378.772-4.687,1.468-6.848,2.1C24.825,13.594,29.37,3.045,37.414,3.045ZM41.891,13.7v.489c-2.733.841-5.738,1.755-8.678,2.668,1.689-6.442,4.832-9.588,7.558-10.77A21.327,21.327,0,0,1,41.891,13.7Zm1.954-8.1c2.516.268,4.136,3.143,5.18,6.362-1.265.413-2.664.837-4.2,1.327v-.913a20.613,20.613,0,0,0-.982-6.782Zm10.846,4.673c-.073,0-.218.076-.283.076s-1.048.272-2.588.761c-1.533-4.47-4.263-8.591-9.092-8.591h-.417A5.964,5.964,0,0,0,37.759,0C26.5,0,21.12,14.054,19.434,21.192c-4.328,1.323-7.478,2.305-7.83,2.443-2.447.772-2.516.841-2.8,3.154-.272,1.675-6.634,50.978-6.634,50.978L51.331,87l3.36-76.727Z" transform="translate(150.828 52)" fill="#0a2c3d"/>
        <path id="Caminho_4" data-name="Caminho 4" d="M45.091,15A16.548,16.548,0,1,1,12,15" transform="matrix(-0.861, 0.152, 0.174, 0.985, 201.749, 75.111)" fill="none" stroke="#f9f4f4" stroke-linecap="round" stroke-linejoin="round" stroke-width="3"/>
        <ellipse id="Elipse_1" data-name="Elipse 1" cx="3.5" cy="4" rx="3.5" ry="4" transform="translate(169 84)" fill="#fff"/>
        <ellipse id="Elipse_2" data-name="Elipse 2" cx="3.5" cy="4" rx="3.5" ry="4" transform="translate(181 81)" fill="#fff"/>
      </g>
      <text id="eCommerce" transform="translate(239 117)" fill="#0a2c3d" font-size="46" font-family="Roboto-Regular, Roboto"><tspan x="0" y="0">eCommerce</tspan></text>
    </g>
  </g>
</svg>
